<?xml version="1.0" standalone="no"?>
<!DOCTYPE svg PUBLIC "-//W3C//DTD SVG 20010904//EN"
 "http://www.w3.org/TR/2001/REC-SVG-20010904/DTD/svg10.dtd">
<svg version="1.0" xmlns="http://www.w3.org/2000/svg"
 width="512.000000pt" height="512.000000pt" viewBox="0 0 512.000000 512.000000"
 preserveAspectRatio="xMidYMid meet">
<metadata>
Created by potrace 1.16, written by Peter Selinger 2001-2019
</metadata>
<g transform="translate(0.000000,512.000000) scale(0.100000,-0.100000)"
fill="#000000" stroke="none">
<path d="M1997 5100 c-38 -30 -93 -148 -108 -231 -24 -133 14 -261 116 -395
96 -125 122 -219 91 -326 -15 -51 -28 -75 -110 -193 -54 -78 -11 -171 79 -169
53 1 75 18 142 111 88 123 125 269 104 408 -15 101 -46 171 -126 283 -110 154
-119 222 -49 348 43 77 42 124 -1 162 -34 29 -102 30 -138 2z"/>
<path d="M1459 4885 c-35 -19 -82 -95 -109 -175 -18 -54 -21 -81 -17 -160 5
-122 28 -179 117 -298 37 -51 75 -113 84 -139 18 -53 21 -150 6 -205 -10 -34
-23 -56 -103 -172 -38 -54 -37 -108 2 -147 23 -22 39 -29 69 -29 49 0 78 22
136 103 89 127 116 204 116 343 0 139 -34 233 -130 359 -102 133 -116 214 -55
331 51 97 46 157 -15 189 -36 19 -67 19 -101 0z"/>
<path d="M2573 4890 c-32 -13 -91 -105 -113 -179 -27 -84 -26 -198 0 -284 14
-44 43 -97 94 -168 81 -115 106 -173 106 -253 0 -80 -25 -148 -82 -222 -53
-70 -72 -122 -58 -159 14 -37 58 -65 103 -65 36 0 46 6 86 49 100 106 151 226
159 365 8 151 -29 259 -135 401 -67 89 -83 126 -83 195 0 55 14 102 47 150 25
37 31 97 13 131 -22 39 -88 59 -137 39z"/>
<path d="M29 3341 l-29 -29 0 -539 c0 -658 10 -754 105 -1042 110 -330 295
-618 556 -864 l113 -107 -361 0 -360 0 -28 -27 c-27 -27 -27 -30 -23 -123 9
-165 69 -298 189 -419 77 -77 148 -122 251 -159 l73 -27 1705 0 1705 0 73 27
c103 37 174 82 251 159 120 121 180 254 189 419 4 93 4 96 -23 123 l-28 27
-480 0 -481 0 109 103 c117 110 223 232 295 339 l45 67 165 1 c265 0 413 31
577 120 234 126 398 335 480 608 14 49 17 122 20 516 3 253 2 470 -2 483 -3
13 -20 32 -38 43 -30 19 -52 20 -454 20 l-423 0 0 126 c0 125 0 126 -29 155
l-29 29 -1122 0 -1122 0 -29 -29 c-52 -53 -34 -147 33 -170 21 -8 353 -11
1064 -11 l1034 0 0 -347 c0 -417 -12 -627 -45 -785 -105 -510 -402 -941 -847
-1231 l-58 -37 -950 0 -950 0 -58 37 c-445 290 -742 721 -847 1231 -33 158
-45 368 -45 785 l0 347 339 0 c215 0 349 4 369 11 40 14 62 49 62 99 0 33 -6
48 -29 71 l-29 29 -427 0 -427 0 -29 -29z m4888 -843 c-5 -381 -11 -431 -63
-551 -106 -241 -316 -407 -573 -452 -91 -16 -285 -20 -279 -6 2 4 19 47 38 93
l34 85 96 6 c116 7 207 34 288 86 117 76 189 167 234 295 27 80 28 85 28 309
0 138 -4 236 -10 248 -24 43 -56 49 -290 49 l-220 0 0 95 0 95 361 0 361 0 -5
-352z m-397 -140 c-1 -187 -30 -286 -111 -367 -52 -52 -143 -97 -218 -106 -48
-7 -53 -6 -47 10 21 55 48 259 53 398 l6 157 158 0 159 0 0 -92z m-300 -1812
c0 -7 -16 -45 -35 -83 -68 -136 -204 -233 -356 -253 -100 -13 -3118 -13 -3218
0 -152 20 -288 117 -356 253 -19 38 -35 76 -35 83 0 12 316 14 2000 14 1684 0
2000 -2 2000 -14z"/>
<path d="M1385 3358 c-60 -33 -75 -115 -29 -161 74 -75 198 -10 178 93 -13 62
-93 99 -149 68z"/>
<path d="M3560 2487 c-35 -29 -42 -49 -50 -164 -24 -332 -146 -625 -363 -871
-36 -40 -67 -86 -70 -102 -14 -67 34 -123 106 -123 33 0 46 8 89 49 58 57 169
202 220 289 144 242 227 529 228 781 0 96 -1 103 -26 128 -21 21 -36 26 -73
26 -25 0 -53 -6 -61 -13z"/>
<path d="M2779 1151 c-23 -24 -29 -38 -29 -73 0 -55 20 -84 70 -99 54 -16 110
12 127 65 17 48 8 80 -29 111 -43 36 -100 34 -139 -4z"/>
</g>
</svg>
