<svg width="24" height="24" viewBox="0 0 24 24" fill="none" xmlns="http://www.w3.org/2000/svg">
<g id="done_FILL0_wght200_GRAD0_opsz24 1">
<path id="Vector" d="M9.54979 15.8808L18.3517 7.07891C18.4491 6.98148 18.5649 6.92955 18.6988 6.92314C18.8328 6.91672 18.9549 6.96865 19.0652 7.07891C19.1754 7.18916 19.2306 7.30807 19.2306 7.43564C19.2306 7.5632 19.1754 7.68211 19.0652 7.79236L10.1152 16.7424C9.95363 16.9039 9.76517 16.9847 9.54979 16.9847C9.3344 16.9847 9.14595 16.9039 8.98441 16.7424L4.93441 12.6924C4.83696 12.5949 4.786 12.4792 4.78151 12.3453C4.77703 12.2113 4.82991 12.0892 4.94016 11.9789C5.05043 11.8686 5.16935 11.8135 5.29691 11.8135C5.42448 11.8135 5.54339 11.8686 5.65364 11.9789L9.54979 15.8808Z" fill="black"/>
</g>
</svg>
