<?xml version="1.0" encoding="UTF-8"?>
<svg width="1200pt" height="1200pt" version="1.1" viewBox="0 0 1200 1200" xmlns="http://www.w3.org/2000/svg">
 <g fill="#c176af">
  <path d="m986.65 182.38c0-34.535-28.105-62.629-62.641-62.629-34.535 0-62.629 28.094-62.629 62.629s28.094 62.629 62.629 62.629c34.535 0 62.641-28.094 62.641-62.629zm-62.641 38.629c-21.289 0-38.629-17.328-38.629-38.629s17.328-38.629 38.629-38.629 38.641 17.328 38.641 38.629-17.34 38.629-38.641 38.629z"/>
  <path d="m1017.4 295.59c-34.535 0-62.641 28.105-62.641 62.641 0 34.535 28.105 62.629 62.641 62.629 34.535-0.003907 62.629-28.109 62.629-62.633 0-34.523-28.094-62.637-62.629-62.637zm0 101.25c-21.301 0-38.641-17.328-38.641-38.629 0-21.301 17.328-38.641 38.641-38.641 21.289 0 38.629 17.328 38.629 38.641 0 21.301-17.328 38.629-38.629 38.629z"/>
  <path d="m182.63 911.09c34.535 0 62.641-28.094 62.641-62.629 0-34.535-28.105-62.629-62.641-62.629s-62.629 28.094-62.629 62.629c0 34.535 28.094 62.629 62.629 62.629zm0-101.26c21.301 0 38.641 17.328 38.641 38.629 0 21.301-17.328 38.629-38.641 38.629-21.289 0-38.629-17.328-38.629-38.629 0-21.301 17.328-38.629 38.629-38.629z"/>
  <path d="m974.65 951.74c-34.535 0-62.641 28.094-62.641 62.629s28.105 62.629 62.641 62.629 62.629-28.094 62.629-62.629-28.094-62.629-62.629-62.629zm0 101.25c-21.301 0-38.641-17.328-38.641-38.629s17.328-38.629 38.641-38.629c21.289 0 38.629 17.328 38.629 38.629s-17.34 38.629-38.629 38.629z"/>
  <path d="m126.49 252.71 65.496 33.852 9.2383 73.164c0.57422 4.5352 3.6719 8.3398 7.9805 9.8398 1.2852 0.44531 2.6172 0.66016 3.9258 0.66016 3.1094 0 6.1562-1.2109 8.4375-3.4688l52.453-51.828 72.422 13.824c4.4648 0.85156 9.0703-0.91016 11.82-4.5586 2.7461-3.6484 3.2031-8.5312 1.1523-12.625l-33.086-65.879 35.52-64.633c2.207-3.9961 1.9453-8.9023-0.67187-12.648-2.6289-3.7422-7.1641-5.6992-11.652-4.9922l-72.887 11.113-50.473-53.762c-3.1445-3.3359-7.9062-4.5977-12.254-3.2656-4.3672 1.332-7.6094 5.0273-8.3398 9.5391l-11.965 72.758-66.73 31.379c-4.1406 1.9453-6.8047 6.0703-6.8867 10.645-0.089844 4.5742 2.4336 8.7891 6.5 10.887zm83.051-33.887c3.5742-1.6914 6.0977-5.0156 6.7305-8.9141l9.0469-54.984 38.148 40.633c2.7109 2.8789 6.6953 4.2461 10.559 3.6484l55.094-8.3867-26.844 48.84c-1.9062 3.457-1.9805 7.6328-0.21484 11.172l25.008 49.789-54.742-10.453c-3.875-0.71875-7.8594 0.46875-10.691 3.2539l-39.648 39.18-6.9727-55.285c-0.49219-3.9258-2.8789-7.3438-6.3945-9.168l-49.512-25.598z"/>
  <path d="m534 894.31c-2.6289-3.7422-7.1875-5.6992-11.652-4.9922l-63.035 9.6016-43.656-46.488c-3.1328-3.3242-7.8828-4.5977-12.238-3.2656-4.3672 1.332-7.6094 5.0273-8.3398 9.5391l-10.355 62.914-57.695 27.145c-4.1406 1.9453-6.8047 6.0703-6.8867 10.645-0.085937 4.5703 2.4258 8.7852 6.4922 10.883l56.629 29.27 7.9922 63.254c0.57422 4.5352 3.6719 8.3398 7.9805 9.8398 1.2852 0.44531 2.6172 0.66016 3.9258 0.66016 3.1094 0 6.1562-1.2109 8.4375-3.4688l45.348-44.797 62.641 11.941c4.4766 0.83984 9.0586-0.89844 11.82-4.5586 2.7461-3.6484 3.2031-8.5312 1.1523-12.625l-28.609-56.965 30.719-55.883c2.1992-3.9961 1.9492-8.9062-0.66797-12.648zm-54.324 73.668 20.531 40.883-44.953-8.5781c-3.8633-0.70703-7.8594 0.46875-10.691 3.2539l-32.543 32.16-5.7344-45.395c-0.49219-3.9258-2.8789-7.3438-6.3945-9.168l-40.645-21.012 41.398-19.477c3.5742-1.6914 6.0977-5.0156 6.7305-8.9141l7.4414-45.156 31.32 33.359c2.6992 2.8789 6.6719 4.2617 10.547 3.6484l45.238-6.875-22.043 40.105c-1.9062 3.4492-1.9805 7.625-0.20312 11.164z"/>
  <path d="m774.56 673.75c-28.922-12.254-62.305 1.3086-74.555 30.156-5.9297 13.98-6.0469 29.438-0.34766 43.512 5.6992 14.09 16.523 25.105 30.504 31.031 7.2227 3.0586 14.723 4.5 22.117 4.5 22.152 0 43.246-13.02 52.441-34.656 5.9297-13.98 6.0469-29.438 0.34766-43.512-5.7031-14.09-16.527-25.105-30.508-31.031zm8.0547 65.156c-7.0781 16.68-26.426 24.492-43.078 17.426-8.0898-3.4219-14.34-9.7812-17.641-17.93-3.2891-8.1367-3.2148-17.062 0.21484-25.141 7.0664-16.68 26.375-24.504 43.078-17.426 16.68 7.0703 24.504 26.402 17.426 43.07z"/>
  <path d="m620.98 608.63c-13.98-5.9141-29.426-6.0469-43.512-0.34766-14.09 5.6992-25.105 16.523-31.031 30.504-5.9297 13.98-6.0469 29.438-0.34766 43.512 5.6992 14.09 16.523 25.105 30.504 31.031 7.1523 3.0234 14.664 4.5352 22.199 4.5352 7.2109 0 14.426-1.3789 21.312-4.1758 14.09-5.6992 25.105-16.535 31.031-30.516 5.9297-13.98 6.0586-29.438 0.35938-43.512-5.6992-14.09-16.535-25.105-30.516-31.031zm8.0508 65.16c-3.4219 8.0898-9.7812 14.34-17.93 17.641-8.1133 3.3008-17.051 3.2148-25.141-0.21484-16.691-7.0664-24.504-26.387-17.426-43.066 5.293-12.516 17.484-20.039 30.289-20.039 4.2617 0 8.6055 0.83984 12.77 2.6172 8.0898 3.4219 14.34 9.7812 17.641 17.93 3.3008 8.1289 3.2305 17.066-0.20312 25.133z"/>
  <path d="m467.4 543.52c-13.98-5.9141-29.461-6.0586-43.512-0.35938-14.09 5.6992-25.105 16.523-31.031 30.504-12.227 28.859 1.2969 62.305 30.156 74.555 7.1406 3.0234 14.664 4.5352 22.188 4.5352 7.2227 0 14.438-1.3906 21.324-4.1875 14.09-5.6992 25.105-16.523 31.031-30.504 12.23-28.871-1.3086-62.316-30.156-74.543zm8.0547 65.172c-3.4219 8.0898-9.7812 14.34-17.93 17.641-8.1367 3.2656-17.051 3.2148-25.141-0.21484-16.68-7.0781-24.492-26.398-17.426-43.078 3.4219-8.0898 9.7812-14.34 17.93-17.641 8.1367-3.2773 17.074-3.2148 25.141 0.22656 16.68 7.0664 24.492 26.387 17.426 43.066z"/>
  <path d="m495.28 360.21c-19.57 20.027-33.973 43.738-42.805 70.488-2.0898 6.2891 1.332 13.078 7.6328 15.156 1.2461 0.42188 2.5195 0.61328 3.7578 0.61328 5.0391 0 9.7305-3.1914 11.387-8.2422 7.6914-23.242 20.195-43.848 37.188-61.234 4.6445-4.7539 4.5469-12.336-0.19141-16.969-4.7188-4.6484-12.34-4.5391-16.969 0.1875z"/>
  <path d="m740 312.74c-63.539-26.941-134.27-22.5-194.04 12.145-5.7344 3.3242-7.6914 10.668-4.3555 16.402 2.2305 3.8281 6.2539 5.9766 10.391 5.9766 2.0391 0 4.1172-0.51562 6.0117-1.6211 53.195-30.84 116.12-34.754 172.62-10.801 6.0859 2.5547 13.141-0.25391 15.742-6.3594 2.582-6.1055-0.27344-13.148-6.3711-15.742z"/>
  <path d="m913.64 664.43-1.5117-0.64844 12.504-29.508c62.316-147-6.5625-317.3-153.56-379.64-147.02-62.293-317.29 6.5742-379.64 153.56l-12.516 29.52-1.5117-0.64844c-29.438-12.48-61.969-12.758-91.633-0.75781-29.641 11.988-52.836 34.801-65.328 64.246-12.48 29.449-12.742 61.992-0.74219 91.633 11.988 29.652 34.801 52.848 64.246 65.328l50.195 21.289-78.301 48.66c-5.6289 3.5039-7.3438 10.895-3.8516 16.535 2.2695 3.6602 6.2031 5.6641 10.211 5.6641 2.1602 0 4.3438-0.58984 6.3242-1.8008l92.074-57.227c0.17969-0.10937 0.27734-0.30078 0.45703-0.42187l382.03 161.99c0.035156 0.20312-0.035157 0.39453 0.011718 0.60156l22.883 105.97c1.2227 5.6289 6.1914 9.4688 11.723 9.4688 0.83984 0 1.6914-0.085938 2.543-0.26563 6.4805-1.3906 10.598-7.7773 9.2031-14.258l-19.465-90.109 50.195 21.289c15.215 6.4453 31.008 9.4922 46.559 9.4922 46.656 0 91.078-27.422 110.4-72.984 25.75-60.785-2.7266-131.19-63.492-156.98zm-500.11-246.86c57.168-134.82 213.36-198.01 348.17-140.83 134.82 57.168 198 213.35 140.83 348.17l-12.504 29.508-489-207.32zm541.49 394.44c-20.605 48.602-76.859 71.387-125.48 50.762l-536.23-227.37c-48.602-20.594-71.363-76.883-50.762-125.48 9.9844-23.543 28.535-41.785 52.234-51.371 11.605-4.6914 23.746-7.0312 35.902-7.0312 12.672 0 25.332 2.5547 37.344 7.6562l536.24 227.35c48.582 20.605 71.359 76.898 50.754 125.48z"/>
 </g>
</svg>
